<svg width="1em" height="1em" aria-focusable="false" aria-hidden="true" viewBox="0 0 100 100" xmlns="http://www.w3.org/2000/svg">
 <path fill="currentColor" d="m50 0c-27.56 0-50 22.44-50 50s22.44 50 50 50 50-22.44 50-50-22.44-50-50-50zm0 10c22.15 0 40 17.85 40 40s-17.85 40-40 40-40-17.85-40-40 17.85-40 40-40zm12.46 22.43a5 5 0 0 0-3.49 1.535l-8.965 8.965-8.965-8.965a5 5 0 0 0-3.588-1.516 5 5 0 0 0-3.482 8.586l8.965 8.965-8.965 8.965a5 5 0 1 0 7.07 7.07l8.965-8.965 8.965 8.965a5 5 0 1 0 7.07-7.07l-8.965-8.965 8.965-8.965a5 5 0 0 0-3.58-8.605z"/>
</svg>
