<svg width="1em" height="1em" aria-focusable="false" aria-hidden="true" viewBox="0 0 100 100" xmlns="http://www.w3.org/2000/svg">
 <path fill="currentColor" d="m14 2c-7.685 0-14 6.315-14 14v68c0 7.685 6.315 14 14 14h54c7.685 0 14-6.315 14-14v-17.5a4 4 0 1 0-8 0v17.5c0 3.361-2.639 6-6 6h-54c-3.361 0-6-2.639-6-6v-68c0-3.361 2.639-6 6-6h52.5a4 4 0 1 0 0-8h-52.5zm64.96 6.459a4 4 0 0 0-0.03711 0.001953 4 4 0 0 0-0.001953 0 4 4 0 0 0-3.201 1.664l-37.55 37.55a4 4 0 0 0-1.172 2.828v17a4 4 0 0 0 4 4h17a4 4 0 0 0 2.828-1.172l38-38a4 4 0 0 0 0-5.656l-16.54-16.54a4 4 0 0 0-3.24-1.672 4 4 0 0 0-0.0918-0.003906zm0.04102 9.697 11.34 11.34-3.697 3.697-11.34-11.34 3.697-3.697zm-59 6.344a3.5 3.5 0 1 0 0 7h25a3.5 3.5 0 1 0 0-7h-25zm50.35 2.303 11.34 11.34-25.35 25.35h-11.34v-11.34l25.35-25.35zm-50.35 17.7a3.5 3.5 0 1 0 0 7h10a3.5 3.5 0 1 0 0-7h-10zm0 20a3.5 3.5 0 1 0 0 7h10a3.5 3.5 0 1 0 0-7h-10z"/>
</svg>
