<svg width="1em" height="1em" aria-focusable="false" aria-hidden="true" viewBox="0 0 100 100" xmlns="http://www.w3.org/2000/svg">
 <path d="m35.23 0a5.87 5.87 0 0 0-4.311 9.74c1.333 1.511 2.515 3.013 3.689 4.514 1.499 2.327 2.18 4.41 2.18 6.277 0 2.935-1.418 6.324-5.617 10.52-10.47 10.47-16.39 21.76-16.39 33.5a5.87 5.87 0 0 0 0 2e-3c0.0036 19.38 15.84 35.21 35.22 35.21 18.95 0 34.4-15.16 35.09-33.95a5.87 5.87 0 0 0 0.1289-1.266 5.87 5.87 0 0 0 0-0.0039 5.87 5.87 0 0 0-0.05859-0.8477c-0.1511-9.449-2.811-19.69-7.785-30.88a5.87 5.87 0 0 0-11.15 1.42c-1.119 6.711-3.067 11.23-5.139 13.71-0.3644 0.4373-0.761 0.5826-1.125 0.9258-0.2389-14.38-5.739-28.46-16.02-41.73-1.149-1.678-2.451-3.31-3.961-4.873-0.08754-0.09994-0.158-0.2029-0.2461-0.3027l-0.0098 0.0098c-0.08808-0.08957-0.1511-0.1882-0.2402-0.2773a5.87 5.87 0 0 0-4.242-1.705zm9.795 32.14c3.046 8.034 3.965 16.07 2.826 24.27a5.87 5.87 0 0 0 5.812 6.678c6.359 0 12.39-2.764 16.43-7.615 0.679-0.8148 1.244-1.742 1.83-2.648 1.02 4.253 1.549 8.185 1.549 11.73-0.002406 13.03-10.44 23.47-23.48 23.47s-23.48-10.44-23.48-23.47c0-7.826 3.864-16.11 12.96-25.2 2.269-2.269 4.072-4.7 5.553-7.213z"/>
</svg>
