<svg width="1em" height="1em" aria-focusable="false" aria-hidden="true" viewBox="0 0 100 100" xmlns="http://www.w3.org/2000/svg">
 <path d="m29 2c-15.97 0-29 13.03-29 29s13.03 29 29 29c7.322 0 14.02-2.745 19.14-7.252a2 2 0 0 0 0.4492 0.666l1.512 1.512a4 4 0 0 0 1.074 3.902l18 18a4 4 0 1 0 5.656-5.656l-18-18a4 4 0 0 0-2.869-1.213 4 4 0 0 0-1.031 0.1406l-1.514-1.514a2 2 0 0 0-0.666-0.4512c4.506-5.114 7.252-11.81 7.252-19.13 0-15.97-13.03-29-29-29zm30 0a4 4 0 1 0 0 8h27c3.361 0 6 2.639 6 6v68c0 3.361-2.639 6-6 6h-54c-3.361 0-6-2.639-6-6v-15a4 4 0 1 0-8 0v15c0 7.685 6.315 14 14 14h54c7.685 0 14-6.315 14-14v-68c0-7.385-5.848-13.44-13.12-13.91a4 4 0 0 0-0.877-0.08984h-27zm-30 8c11.65 0 21 9.355 21 21s-9.355 21-21 21-21-9.355-21-21 9.355-21 21-21zm9 14.5a3.5 3.5 0 1 0 0 7h4a3.5 3.5 0 1 0 0-7h-4zm28 0a3.5 3.5 0 1 0 0 7h12a3.5 3.5 0 1 0 0-7h-12zm-3 20a3.5 3.5 0 1 0 0 7h15a3.5 3.5 0 1 0 0-7h-15zm-25 20a3.5 3.5 0 1 0 0 7h12a3.5 3.5 0 1 0 0-7h-12z"/>
</svg>
