<svg width="1em" height="1em" aria-focusable="false" aria-hidden="true" viewBox="0 0 100 100" xmlns="http://www.w3.org/2000/svg">
 <path d="m50 0c-10.99 0-20 9.014-20 20v30c0 3.333-1.035 3.965-3.535 6.465s-6.465 6.868-6.465 13.54c0 16.51 13.49 30 30 30s30-13.49 30-30c0-6.667-3.965-11.04-6.465-13.54s-3.535-3.132-3.535-6.465v-30c0-10.99-9.014-20-20-20zm0 10c5.582 0 10 4.418 10 10v30c0 6.667 3.965 11.04 6.465 13.54s3.535 3.132 3.535 6.465c0 11.1-8.895 20-20 20s-20-8.895-20-20c0-3.333 1.035-3.965 3.535-6.465s6.465-6.868 6.465-13.54v-30c0-5.582 4.418-10 10-10zm-0.06055 8.443a4 4 0 0 0-3.939 4.057v40.85a10 10 0 0 0-6 9.152 10 10 0 0 0 10 10 10 10 0 0 0 10-10 10 10 0 0 0-6-9.16v-40.84a4 4 0 0 0-4.061-4.057z"/>
</svg>
