<svg width="1em" height="1em" aria-focusable="false" aria-hidden="true" viewBox="0 0 100 100" xmlns="http://www.w3.org/2000/svg">
 <path fill="currentColor" d="m49.96 7.465a2.5 2.5 0 0 0-2.463 2.535v13.96l-7.732-7.732a2.5 2.5 0 0 0-3.535 3.535l11.27 11.27v14.63l-12.67-7.318-4.125-15.39a2.5 2.5 0 0 0-4.828 1.293l2.83 10.56-12.09-6.982a2.5 2.5 0 0 0-3.465 0.9297 2.5 2.5 0 0 0 0.9648 3.402l12.09 6.982-10.56 2.83a2.5 2.5 0 0 0 1.293 4.828l15.39-4.123 12.67 7.316-12.67 7.316-15.39-4.123a2.5 2.5 0 0 0-1.293 4.828l10.56 2.83-12.09 6.982a2.5 2.5 0 0 0-0.9277 3.465 2.5 2.5 0 0 0 3.428 0.8672l12.09-6.982-2.83 10.56a2.5 2.5 0 0 0 4.828 1.293l4.125-15.39 12.67-7.316v14.63l-11.27 11.27a2.5 2.5 0 0 0 3.535 3.535l7.732-7.732v13.96a2.5 2.5 0 0 0 2.537 2.535 2.5 2.5 0 0 0 2.463-2.535v-13.96l7.732 7.732a2.5 2.5 0 0 0 3.535-3.535l-11.27-11.27v-14.63l12.67 7.316 4.125 15.39a2.5 2.5 0 0 0 4.828-1.293l-2.83-10.56 12.09 6.982a2.5 2.5 0 0 0 3.465-0.9297 2.5 2.5 0 0 0-0.9648-3.402l-12.09-6.982 10.56-2.83a2.5 2.5 0 0 0-1.293-4.828l-15.39 4.123-12.67-7.316 12.67-7.316 15.39 4.123a2.5 2.5 0 0 0 1.293-4.828l-10.56-2.83 12.09-6.982a2.5 2.5 0 0 0 0.9277-3.465 2.5 2.5 0 0 0-3.428-0.8672l-12.09 6.982 2.83-10.56a2.5 2.5 0 0 0-4.828-1.293l-4.125 15.39-12.67 7.318v-14.63l11.27-11.27a2.5 2.5 0 0 0-3.535-3.535l-7.732 7.732v-13.96a2.5 2.5 0 0 0-2.537-2.535z"/>
</svg>
