<svg width="1em" height="1em" aria-focusable="false" aria-hidden="true" viewBox="0 0 100 100" xmlns="http://www.w3.org/2000/svg">
 <path fill="currentColor" d="m34.65 10.01a3 3 0 0 0-0.8848 0.1406 3 3 0 0 0-0.2812 0.1055 3 3 0 0 0-0.7598 0.4746 3 3 0 0 0-0.4141 0.4316 3 3 0 0 0-0.3203 0.5078 3 3 0 0 0-0.1211 0.2734 3 3 0 0 0-0.1543 0.5801 3 3 0 0 0-0.03516 0.2969 3 3 0 0 0 0.02344 0.5996 3 3 0 0 0 0.05469 0.293 3 3 0 0 0 0.08594 0.2891 3 3 0 0 0 0.07617 0.1953c2.734 6.6 3.418 13.53 2.354 20.08-6.555 1.064-13.48 0.3804-20.08-2.354a3 3 0 0 0-2.297 5.543c6.6 2.734 11.98 7.148 15.87 12.54-3.883 5.388-9.265 9.801-15.87 12.54a3 3 0 0 0 2.297 5.543c6.6-2.734 13.53-3.418 20.08-2.354 1.064 6.555 0.3804 13.48-2.354 20.08a3 3 0 0 0 5.543 2.297c2.734-6.6 7.148-11.98 12.54-15.87 5.388 3.883 9.801 9.265 12.54 15.87a3 3 0 0 0 5.543-2.297c-2.734-6.6-3.418-13.53-2.354-20.08 6.555-1.064 13.48-0.3804 20.08 2.354a3 3 0 0 0 2.297-5.543c-6.6-2.734-11.98-7.148-15.87-12.54 3.883-5.388 9.265-9.801 15.87-12.54a3 3 0 0 0-2.297-5.543c-6.6 2.734-13.53 3.418-20.08 2.354-1.064-6.555-0.3804-13.48 2.354-20.08a3 3 0 0 0 0.2285-0.8672 3 3 0 0 0 0.003906-0.5996 3 3 0 0 0-0.2148-0.8711 3 3 0 0 0-0.2852-0.5273 3 3 0 0 0-0.1797-0.2402 3 3 0 0 0-0.2031-0.2207 3 3 0 0 0-0.2227-0.1992 3 3 0 0 0-1.352-0.6152 3 3 0 0 0-0.5977-0.04688 3 3 0 0 0-0.2988 0.02148 3 3 0 0 0-0.2949 0.05273 3 3 0 0 0-0.2891 0.08008 3 3 0 0 0-0.2793 0.1094 3 3 0 0 0-0.5195 0.2988 3 3 0 0 0-1.039 1.328c-2.734 6.6-7.148 11.98-12.54 15.87-5.388-3.883-9.801-9.265-12.54-15.87a3 3 0 0 0-0.873-1.201 3 3 0 0 0-0.7676-0.4629 3 3 0 0 0-0.2832-0.09961 3 3 0 0 0-0.291-0.07226 3 3 0 0 0-0.5977-0.05469z"/>
</svg>
