<svg width="1em" height="1em" aria-focusable="false" aria-hidden="true" viewBox="0 0 100 100" xmlns="http://www.w3.org/2000/svg">
  <path fill="currentColor" d="m50 0a8.8 8.8 0 0 0-8.801 8.801 8.8 8.8 0 0 0 8.801 8.799 8.8 8.8 0 0 0 8.801-8.799 8.8 8.8 0 0 0-8.801-8.801zm-29 12.07a8.8 8.8 0 0 0-6.352 2.576 8.8 8.8 0 0 0 0 12.45 8.8 8.8 0 0 0 12.45 0 8.8 8.8 0 0 0 0-12.45 8.8 8.8 0 0 0-6.094-2.576zm58.27 0a8.8 8.8 0 0 0-6.352 2.576 8.8 8.8 0 0 0 0 12.45 8.8 8.8 0 0 0 12.45 0 8.8 8.8 0 0 0 0-12.45 8.8 8.8 0 0 0-6.094-2.576zm-29.26 15.93a22 22 0 0 0-22 22 22 22 0 0 0 22 22 22 22 0 0 0 22-22 22 22 0 0 0-22-22zm-41.2 13.2a8.8 8.8 0 0 0-8.801 8.801 8.8 8.8 0 0 0 8.801 8.801 8.8 8.8 0 0 0 8.799-8.801 8.8 8.8 0 0 0-8.799-8.801zm82.4 0a8.8 8.8 0 0 0-8.799 8.801 8.8 8.8 0 0 0 8.799 8.801 8.8 8.8 0 0 0 8.801-8.801 8.8 8.8 0 0 0-8.801-8.801zm-70.2 29.13a8.8 8.8 0 0 0-6.352 2.576 8.8 8.8 0 0 0 0 12.45 8.8 8.8 0 0 0 12.45 0 8.8 8.8 0 0 0 0-12.45 8.8 8.8 0 0 0-6.094-2.576zm58.27 0a8.8 8.8 45 0 0-6.352 2.576 8.8 8.8 45 0 0 0 12.45 8.8 8.8 45 0 0 12.45 0 8.8 8.8 45 0 0 0-12.45 8.8 8.8 45 0 0-6.094-2.576zm-29.26 12.07a8.8 8.8 0 0 0-8.801 8.799 8.8 8.8 0 0 0 8.801 8.801 8.8 8.8 0 0 0 8.801-8.801 8.8 8.8 0 0 0-8.801-8.799z" />
</svg>
