<svg width="1em" height="1em" aria-focusable="false" aria-hidden="true" viewBox="0 0 100 100" xmlns="http://www.w3.org/2000/svg">
 <path fill="currentColor" d="m72 0.5a4.84 4.84 0 0 0-4.84 4.84 4.84 4.84 0 0 0 4.84 4.84 4.84 4.84 0 0 0 4.84-4.84 4.84 4.84 0 0 0-4.84-4.84zm-15.95 6.637a4.84 4.84 0 0 0-3.492 1.418 4.84 4.84 0 0 0 0 6.844 4.84 4.84 0 0 0 6.844 0 4.84 4.84 0 0 0 0-6.844 4.84 4.84 0 0 0-3.352-1.418zm32.05 0a4.84 4.84 0 0 0-3.492 1.418 4.84 4.84 0 0 0 0 6.844 4.84 4.84 0 0 0 6.844 0 4.84 4.84 0 0 0 0-6.844 4.84 4.84 0 0 0-3.352-1.418zm-16.09 8.764a12.1 12.1 0 0 0-12.1 12.1 12.1 12.1 0 0 0 12.1 12.1 12.1 12.1 0 0 0 12.1-12.1 12.1 12.1 0 0 0-12.1-12.1zm-22.66 7.26a4.84 4.84 0 0 0-4.84 4.84 4.84 4.84 0 0 0 4.84 4.84 4.84 4.84 0 0 0 4.84-4.84 4.84 4.84 0 0 0-4.84-4.84zm45.32 0a4.84 4.84 0 0 0-4.84 4.84 4.84 4.84 0 0 0 4.84 4.84 4.84 4.84 0 0 0 4.84-4.84 4.84 4.84 0 0 0-4.84-4.84zm-38.61 16.02a4.84 4.84 0 0 0-3.492 1.418 4.84 4.84 0 0 0 0 6.844 4.84 4.84 0 0 0 6.844 0 4.84 4.84 0 0 0 0-6.844 4.84 4.84 0 0 0-3.352-1.418zm32.05 0a4.84 4.84 0 0 0-3.492 1.418 4.84 4.84 0 0 0 0 6.844 4.84 4.84 0 0 0 6.844 0 4.84 4.84 0 0 0 0-6.844 4.84 4.84 0 0 0-3.352-1.418zm-58.09 0.8164a30 30 0 0 0-30 30 30 30 0 0 0 30 30h35a20 20 0 0 0 20-20 20 20 0 0 0-20-20 20 20 0 0 0-6.393 1.074 30 30 0 0 0-28.61-21.07zm42 5.82a4.84 4.84 0 0 0-4.84 4.84 4.84 4.84 0 0 0 4.84 4.84 4.84 4.84 0 0 0 4.84-4.84 4.84 4.84 0 0 0-4.84-4.84z" />
</svg>
