<svg width="1em" height="1em" aria-focusable="false" aria-hidden="true" viewBox="0 0 100 100" xmlns="http://www.w3.org/2000/svg">
  <path fill="currentColor" d="m40 6a30 30 0 0 0-30 30 30 30 0 0 0 30 30h35a20 20 0 0 0 20-20 20 20 0 0 0-20-20 20 20 0 0 0-6.393 1.074 30 30 0 0 0-28.61-21.07zm-6.061 68.44a4 4 0 0 0-3.939 4.057v10a4 4 0 1 0 8 0v-10a4 4 0 0 0-4.061-4.057zm32 0a4 4 0 0 0-3.939 4.057v10a4 4 0 1 0 8 0v-10a4 4 0 0 0-4.061-4.057zm-16 5a4 4 0 0 0-3.939 4.057v10a4 4 0 1 0 8 0v-10a4 4 0 0 0-4.061-4.057z" />
</svg>
